<?xml version="1.0" standalone="no"?>
<!DOCTYPE svg PUBLIC "-//W3C//DTD SVG 20010904//EN"
 "http://www.w3.org/TR/2001/REC-SVG-20010904/DTD/svg10.dtd">
<svg version="1.0" xmlns="http://www.w3.org/2000/svg"
 width="64.000000pt" height="64.000000pt" viewBox="0 0 64.000000 64.000000"
 preserveAspectRatio="xMidYMid meet">

<g transform="translate(0.000000,64.000000) scale(0.100000,-0.100000)"
fill="#000000" stroke="none">
<path d="M283 595 c-10 -21 -24 -35 -34 -35 -10 0 -29 -5 -43 -11 -21 -10 -33
-7 -80 20 -31 17 -57 31 -58 31 -2 0 -3 -62 -3 -137 0 -130 -2 -142 -27 -197
-16 -32 -26 -62 -23 -66 2 -4 18 -13 35 -20 18 -7 29 -18 26 -25 -2 -7 5 -16
17 -19 12 -3 19 -8 16 -11 -8 -7 -71 15 -91 32 -15 14 -16 8 -17 -72 l-1 -87
25 16 c23 15 30 15 77 1 41 -12 103 -15 292 -14 l241 1 -43 19 c-23 11 -40 23
-38 28 3 4 23 16 46 26 l40 18 0 59 0 60 -50 -42 c-27 -23 -50 -39 -50 -36 0
3 -20 -10 -45 -29 -25 -19 -62 -39 -83 -45 -53 -14 -147 -12 -187 4 -45 19
-121 91 -129 121 -8 33 8 71 40 91 25 17 29 17 88 -4 66 -24 110 -30 61 -8
-72 32 -132 129 -120 193 3 19 17 46 30 59 41 41 132 30 200 -24 12 -10 15
-11 8 -2 -16 17 -17 50 -2 50 12 0 -81 89 -94 90 -4 0 -15 -16 -24 -35z"/>
<path d="M440 462 c0 -24 28 -62 46 -62 19 0 18 30 -2 58 -18 26 -44 29 -44 4z"/>
<path d="M210 401 c0 -28 39 -81 60 -81 18 0 11 56 -11 84 -27 35 -49 34 -49
-3z"/>
<path d="M521 369 c-24 -23 -25 -46 0 -62 23 -15 69 0 78 26 20 51 -34 76 -78
36z"/>
<path d="M492 240 c-67 -55 -273 -67 -303 -18 -7 10 -12 9 -25 -3 -22 -23 -12
-49 40 -97 96 -89 249 -70 304 38 21 43 30 100 15 100 -5 -1 -19 -9 -31 -20z"/>
</g>
</svg>
